<?xml version="1.0" encoding="iso-8859-1"?>
<!-- Generator: Adobe Illustrator 19.0.0, SVG Export Plug-In . SVG Version: 6.00 Build 0)  -->
<svg version="1.1" id="Layer_1" xmlns="http://www.w3.org/2000/svg" xmlns:xlink="http://www.w3.org/1999/xlink" x="0px" y="0px"
	 viewBox="0 0 512 512" style="enable-background:new 0 0 512 512;" xml:space="preserve">
<path style="fill:#9FBE5B;" d="M511.999,255.405c0.144,64.931-23.883,124.266-63.632,169.489
	c-8.583,9.771-17.909,18.886-27.869,27.247c-42.414,35.63-96.564,57.736-155.832,59.713c-2.676,0.089-5.374,0.133-8.072,0.144
	c-2.842,0.011-5.663-0.033-8.483-0.122c-39.782-1.199-77.289-11.492-110.52-28.857c-2.065-1.077-4.119-2.187-6.151-3.32
	c-1.133-0.633-2.265-1.277-3.386-1.932c-1.133-0.655-2.265-1.31-3.386-1.987c-11.392-6.817-22.195-14.501-32.343-22.95
	c-3.076-2.565-6.096-5.196-9.049-7.905c-1.144-1.033-2.265-2.076-3.386-3.153c-1.11-1.044-2.21-2.098-3.298-3.175
	c-4.208-4.13-8.272-8.405-12.18-12.813c-6.118-6.895-11.858-14.123-17.21-21.651c-0.711-0.999-1.421-2.01-2.132-3.02
	c-0.688-1.022-1.388-2.054-2.076-3.087c-2.42-3.62-4.752-7.306-6.995-11.059c-8.638-14.467-15.889-29.867-21.562-46.011
	c-9.293-26.403-14.379-54.794-14.434-84.373C-0.321,115.195,114.03,0.323,255.417,0.001
	C396.793-0.321,511.677,114.018,511.999,255.405z"/>
<path style="fill:#808080;" d="M154.701,464.022c-0.033,0.067-0.089,0.144-0.133,0.211c-3.242,4.741-6.962,9.238-11.17,13.446
	c-1.876,1.876-3.819,3.664-5.807,5.341c-2.065-1.077-4.119-2.187-6.151-3.32c-1.133-0.633-2.265-1.277-3.386-1.932l2.076-13.357
	l24.327-3.853C154.19,461.701,154.268,462.923,154.701,464.022z"/>
<g>
	<path style="fill:#E6E6E6;" d="M130.13,464.41l-2.076,13.357c-1.133-0.655-2.265-1.31-3.386-1.987
		c-11.392-6.817-22.195-14.501-32.343-22.95c-3.076-2.565-6.096-5.196-9.049-7.905c-1.144-1.033-2.265-2.076-3.386-3.153
		l23.816-3.775L130.13,464.41z"/>
	<path style="fill:#E6E6E6;" d="M71.183,374.997l-26.115,26.115c-0.688-1.022-1.388-2.054-2.076-3.087
		c-2.42-3.62-4.752-7.306-6.995-11.059c-8.638-14.467-15.889-29.867-21.562-46.011c6.351-5.663,13.29-10.315,20.596-13.946
		c0.044-0.022,0.078-0.044,0.122-0.067l1.632,0.811c0.444,0.111,0.91,0.155,1.366,0.155c1.443,0,2.887-0.522,4.008-1.588
		l23.028,11.425l0.089-0.078l0.3,1.888L71.183,374.997z"/>
</g>
<path style="fill:#808080;" d="M110.577,394.638l-3.231,20.352l-3.642,23.006l-23.816,3.775c-1.11-1.044-2.21-2.099-3.298-3.175
	c-4.208-4.13-8.272-8.405-12.18-12.813c-6.118-6.895-11.858-14.123-17.21-21.651c-0.711-0.999-1.421-2.01-2.132-3.02l26.115-26.115
	l0.289-0.278l25.837,13.168L110,394.35L110.577,394.638z"/>
<g>
	<path style="fill:#E6E6E6;" d="M103.71,437.991l6.863-43.348l-0.574-0.292l33.954-17.308h0.007l-0.044,0.299l21.98,11.053
		c-0.138,1.65,0.426,3.349,1.691,4.614c0.354,0.354,0.746,0.656,1.162,0.9l0.664,0.333c3.816,20.848,0.536,42.736-9.836,61.808
		c-0.003,0.01-0.01,0.018-0.013,0.028c-1.296,0.128-2.558,0.687-3.552,1.681c-0.801,0.801-1.317,1.771-1.558,2.796l-24.325,3.854
		L103.71,437.991z"/>
	<path style="fill:#E6E6E6;" d="M71.184,374.997l-5.612-35.447l-0.295-1.884l-0.003-0.003l17.6-17.965l0.003-0.003
		c2.097,0.832,4.58,0.399,6.278-1.299c0.123-0.123,0.241-0.254,0.351-0.385c0.066,0.01,0.128,0.018,0.192,0.028
		c3.744,0.512,7.46,1.251,11.129,2.217c15.592,4.082,30.338,12.24,42.567,24.469c0.536,0.536,1.066,1.079,1.581,1.63
		c0.072,0.072,0.138,0.144,0.207,0.22c-0.326,1.819,0.21,3.765,1.616,5.171c0.282,0.282,0.584,0.53,0.904,0.739l-3.744,24.559
		h-0.007l-33.954,17.308l-38.531-19.635L71.184,374.997z"/>
</g>
<g>
	<path style="fill:#808080;" d="M42.163,326.317c0.041-0.034,0.079-0.072,0.117-0.11c0.866-0.866,1.402-1.932,1.606-3.057
		c0.021-0.007,0.034-0.013,0.056-0.021c11.583-4.342,23.847-6.312,36.056-5.91c0.066,0.003,0.128,0.003,0.192,0.007l-0.117,0.117
		c0.23,0.375,0.509,0.729,0.832,1.053c0.581,0.581,1.255,1.014,1.97,1.304l-17.6,17.965l-0.082,0.082L42.163,326.317z"/>
	<path style="fill:#808080;" d="M143.915,377.342l0.044-0.299l3.744-24.559c1.028,0.684,2.221,1.004,3.411,0.969
		c0.038,0.044,0.076,0.09,0.11,0.138c7.444,9.569,12.78,20.24,16.008,31.39c0.013,0.041,0.024,0.079,0.034,0.123
		c-0.818,0.956-1.272,2.111-1.371,3.29L143.915,377.342z"/>
</g>
<path style="fill:#999999;" d="M107.601,436.73l2.909-18.331v-0.011l3.475-21.973l29.668-15.122l5.718,2.876l0.011,0.011
	l19.364,9.726c-0.411-0.244-0.811-0.544-1.155-0.899c-1.266-1.266-1.832-2.965-1.699-4.608c0.1-1.177,0.555-2.332,1.377-3.298
	c-0.011-0.044-0.022-0.078-0.033-0.122l-19.319-9.704l3.309-21.684c-0.033-0.044-0.078-0.089-0.111-0.133
	c-1.188,0.033-2.387-0.289-3.409-0.977c-0.322-0.2-0.622-0.455-0.91-0.733c-1.399-1.41-1.943-3.353-1.61-5.174
	c-0.067-0.078-0.133-0.144-0.211-0.222l-3.964,25.826l-0.378,2.465L110,390.253l-12.458-6.34l-23.117-11.78l-5.263-33.232
	l7.528-7.639l13.013-13.224c-0.067-0.011-0.133-0.022-0.2-0.022c-0.111,0.122-0.222,0.255-0.344,0.378
	c-1.699,1.699-4.186,2.132-6.284,1.299v0.011c-0.711-0.289-1.388-0.722-1.965-1.31c-0.333-0.322-0.611-0.677-0.833-1.055
	l-15.633,15.966l-20.507-10.17c-0.011,0-0.033,0.011-0.056,0.011c-0.2,1.132-0.733,2.198-1.599,3.064
	c-0.044,0.033-0.078,0.078-0.122,0.111c-1.121,1.066-2.565,1.588-4.008,1.588c-0.455,0-0.922-0.044-1.366-0.155l25.204,12.48
	l0.355,2.243l4.952,31.255l-24.305,24.294c0.688,1.033,1.388,2.065,2.076,3.087c0.711,1.01,1.421,2.021,2.132,3.02l24.971-24.96
	l25.371,12.924l9.016,4.597l-2.243,14.156l-3.797,23.96l-23.927,3.786c1.088,1.077,2.187,2.132,3.298,3.175
	c1.121,1.077,2.243,2.121,3.386,3.153l19.175-3.042l23.794,23.794l-1.577,10.104c1.121,0.677,2.254,1.332,3.386,1.987
	c1.121,0.655,2.254,1.299,3.386,1.932l1.888-12.102l21.24-3.364c0.044-0.067,0.1-0.144,0.133-0.211
	c-0.433-1.099-0.511-2.321-0.244-3.464c0.233-1.022,0.755-1.999,1.554-2.798c0.988-0.988,2.254-1.554,3.553-1.677
	c0-0.011,0.011-0.022,0.011-0.033l-28.18,4.463L107.601,436.73z"/>
<g>
	<path style="fill:#FFFFFF;" d="M168.748,393.91l0.664,0.333C169.181,394.151,168.965,394.038,168.748,393.91z"/>
	<path style="fill:#FFFFFF;" d="M80.072,317.343c-0.028-0.041-0.054-0.082-0.076-0.123c0.066,0.003,0.128,0.003,0.192,0.007
		L80.072,317.343z"/>
	<path style="fill:#FFFFFF;" d="M35.029,327.008c0.041-0.021,0.082-0.041,0.123-0.062l1.633,0.808
		C36.171,327.606,35.576,327.355,35.029,327.008z"/>
</g>
<path style="opacity:0.32;fill:#999999;enable-background:new    ;" d="M35.997,386.966c-8.638-14.467-15.889-29.867-21.562-46.011
	c6.351-5.663,13.29-10.315,20.596-13.946c0.044-0.022,0.078-0.044,0.122-0.067l1.632,0.811c0.444,0.111,0.91,0.155,1.366,0.155
	c1.443,0,2.887-0.522,4.008-1.588l23.028,11.425l0.089-0.078l17.598-17.965v-0.011c2.098,0.833,4.586,0.4,6.284-1.299
	c0.122-0.122,0.233-0.255,0.344-0.377c0.067,0,0.133,0.011,0.2,0.022c3.742,0.511,7.461,1.255,11.125,2.221
	c-8.416,2.465-16.544,6.129-24.138,11.003c-3.853,2.454-7.572,5.218-11.114,8.294c-1.099,0.944-2.176,1.921-3.231,2.92
	c-0.577,0.555-1.155,1.121-1.721,1.688C48.333,356.455,40.117,371.289,35.997,386.966z"/>
<ellipse transform="matrix(0.4548 0.8906 -0.8906 0.4548 420.1069 103.6343)" style="opacity:0.32;fill:#FFFFFF;enable-background:new    ;" cx="125.41" cy="394.942" rx="34.282" ry="26.259"/>
<path style="fill:#EB305B;" d="M420.498,452.142c-35.263,29.623-78.654,49.909-126.342,57.037
	c-8.028,1.199-16.177,2.021-24.427,2.454c-1.688,0.089-3.375,0.167-5.063,0.222c-2.676,0.089-5.374,0.133-8.072,0.144
	c-2.842,0.011-5.663-0.033-8.483-0.122c-1.677-0.056-3.364-0.122-5.03-0.2c-8.25-0.411-16.399-1.21-24.427-2.387
	c-47.621-6.962-91.001-27.036-126.331-56.459c23.594-24.349,52.573-43.458,85.005-55.438c1.732-0.644,3.475-1.266,5.23-1.865
	c1.743-0.6,3.509-1.177,5.274-1.732c5.285-1.677,10.659-3.153,16.1-4.441c14.256-3.364,29.024-5.396,44.179-5.951
	c2.687-0.111,5.385-0.155,8.105-0.167c2.831-0.011,5.651,0.033,8.449,0.144c20.685,0.699,40.693,4.153,59.646,10.004
	c1.776,0.533,3.542,1.099,5.296,1.688s3.509,1.199,5.241,1.832C367.492,408.751,396.682,427.803,420.498,452.142z"/>
<path style="fill:#D32654;" d="M230.3,384.751l-11.947,14.645c0,0-63.077,25.726-97.463,74.058
	c-10.004-6.218-19.553-13.124-28.568-20.63c29.878-30.822,68.373-53.273,111.608-63.477
	C212.546,387.316,221.339,385.773,230.3,384.751z"/>
<path style="fill:#E0B775;" d="M329.606,395.066c-9.526,31.622-38.872,54.661-73.603,54.661c-34.553,0-63.787-22.817-73.447-54.205
	c6.973-2.398,14.112-4.452,21.373-6.173c14.256-3.364,29.024-5.396,44.179-5.951c2.687-0.111,5.385-0.155,8.105-0.167
	c2.831-0.011,5.651,0.033,8.449,0.144C287.292,384.141,309.098,388.193,329.606,395.066z"/>
<path style="fill:#D32654;" d="M334.847,396.898c-5.03,16.51-15.4,31.333-29.246,41.792c-14.379,10.848-31.533,16.588-49.598,16.588
	c-17.976,0-35.053-5.685-49.387-16.444c-13.801-10.359-24.194-25.06-29.29-41.448c1.732-0.644,3.475-1.266,5.23-1.865
	c1.743-0.6,3.509-1.177,5.274-1.732l0.033,0.1c9.26,30.078,36.64,50.286,68.14,50.286c31.211,0,59.291-20.852,68.284-50.708
	l0.022-0.089c1.776,0.533,3.542,1.099,5.296,1.688C331.36,395.654,333.115,396.265,334.847,396.898z"/>
<g>
	<path style="fill:#EFC881;" d="M187.233,242.856c0-17.945-16.76-32.492-37.435-32.492s-37.434,14.548-37.434,32.492
		s16.76,45.1,37.435,45.1S187.233,260.8,187.233,242.856z"/>
	<path style="fill:#EFC881;" d="M399.637,242.856c0-17.945-16.76-32.492-37.435-32.492s-37.435,14.548-37.435,32.492
		s16.76,45.1,37.435,45.1S399.637,260.8,399.637,242.856z"/>
</g>
<g>
	<path style="fill:#E0B775;" d="M385.072,248.218c0-10.589-6.462-19.174-14.434-19.174s-14.434,8.584-14.434,19.174
		c0,10.589,6.462,11.957,14.434,11.957C378.608,260.174,385.072,258.807,385.072,248.218z"/>
	<path style="fill:#E0B775;" d="M155.792,248.218c0-10.589-6.462-19.174-14.434-19.174s-14.434,8.584-14.434,19.174
		c0,10.589,6.462,11.957,14.434,11.957S155.792,258.807,155.792,248.218z"/>
</g>
<path style="fill:#F9D387;" d="M371.342,211.953v66.741c0,12.602-1.654,24.793-4.741,36.296c-1.133,4.23-2.443,8.35-3.964,12.369
	c-12.524,33.676-37.706,60.101-68.995,72.037c-0.733,0.289-1.466,0.566-2.198,0.822c-11.17,4.008-23.083,6.151-35.441,6.151
	c-12.369,0-24.282-2.143-35.441-6.151c-0.744-0.255-1.477-0.533-2.21-0.822c-23.239-8.86-43.091-25.715-56.915-47.61
	c-4.797-7.583-8.86-15.766-12.08-24.427c-1.521-4.019-2.831-8.139-3.953-12.369c-3.098-11.503-4.752-23.694-4.752-36.296v-66.741
	c0-40.215,16.799-76.079,43.047-99.473c19.775-17.643,44.923-28.202,72.303-28.202c31.844,0,60.678,14.29,81.552,37.406
	C358.43,144.78,371.342,176.701,371.342,211.953z"/>
<g>
	<path style="fill:#EFC881;" d="M161.095,309.14l-0.155-1.189c-1.619-12.394-8.703-23.084-18.896-28.517l-1.389-0.741
		c0,12.608,1.651,24.795,4.744,36.301c1.127,4.223,2.438,8.343,3.958,12.361c12.531,33.675,37.71,60.11,68.997,72.036
		c-6.144-27.8-20.859-50.567-39.985-62.658C169.106,330.877,162.622,320.829,161.095,309.14z"/>
	<path style="fill:#EFC881;" d="M351.059,307.951l-0.155,1.189c-1.527,11.689-8.011,21.737-17.276,27.595
		c-19.125,12.091-33.84,34.858-39.985,62.658c31.287-11.926,56.466-38.361,68.997-72.036c1.52-4.019,2.831-8.14,3.958-12.361
		c3.093-11.505,4.744-23.693,4.744-36.301l-1.389,0.741C359.762,284.866,352.678,295.557,351.059,307.951z"/>
</g>
<g>
	<path style="fill:#4D4D4D;" d="M243.082,470.584v41.093c-8.25-0.411-16.399-1.21-24.427-2.387v-38.705H243.082z"/>
	<path style="fill:#4D4D4D;" d="M294.156,470.584v38.594c-8.028,1.199-16.177,2.021-24.427,2.454v-41.048H294.156z"/>
</g>
<path style="fill:#68635B;" d="M371.345,209.372h-0.844c0,0-16.066-46.544-37.884-46.544c-21.829,0-41.392,20.829-78.255,20.829
	c-35.93,0-55.427-19.775-76.578-20.785c-0.555-0.033-1.121-0.044-1.677-0.044c-16.799,0-30.167,27.558-35.452,40.26
	c0-63.476,25.593-116.183,89.08-127.142c0.011-0.011,0.011-0.011,0.011-0.011c7.972-1.377,16.533-2.098,25.726-2.098
	C348.95,73.836,371.345,127.598,371.345,209.372z"/>
<g>
	<path style="fill:#4D4D4D;" d="M229.736,75.946c-0.799,0.511-35.097,22.95-51.951,86.926c-0.555-0.033-1.121-0.044-1.677-0.044
		c-16.799,0-30.167,27.558-35.452,40.26C140.655,139.611,166.248,86.905,229.736,75.946z"/>
	<path style="fill:#4D4D4D;" d="M320.205,245.043v22.512c0,4.213-3.408,7.62-7.62,7.62c-4.063,0-7.381-3.179-7.6-7.193
		c-0.01-0.139-0.01-0.289-0.01-0.427v-22.512c0-4.213,3.408-7.62,7.61-7.62c2.106,0,4.014,0.854,5.384,2.225
		c0.984,0.984,1.699,2.235,2.026,3.626C320.135,243.84,320.205,244.437,320.205,245.043z"/>
	<path style="fill:#4D4D4D;" d="M199.41,275.173L199.41,275.173c-4.206,0-7.617-3.41-7.617-7.617v-22.518
		c0-4.206,3.41-7.617,7.617-7.617l0,0c4.206,0,7.617,3.41,7.617,7.617v22.518C207.026,271.764,203.617,275.173,199.41,275.173z"/>
</g>
<g>
	<path style="fill:#68635B;" d="M331.096,217.437c0-10.22-8.285-18.506-18.506-18.506s-18.506,8.285-18.506,18.506l0,0
		C304.305,207.217,320.876,207.217,331.096,217.437L331.096,217.437z"/>
	<path style="fill:#68635B;" d="M217.915,217.437c0-10.22-8.285-18.506-18.506-18.506c-10.22,0-18.506,8.285-18.506,18.506l0,0
		C191.125,207.217,207.695,207.217,217.915,217.437L217.915,217.437z"/>
</g>
<g>
	<path style="fill:#666666;" d="M320.2,245.043v22.512c0,4.213-3.408,7.62-7.62,7.62c-4.063,0-7.381-3.179-7.6-7.193
		c8.524-8.763,12.845-18.11,15.01-24.707C320.131,243.84,320.2,244.437,320.2,245.043z"/>
	<path style="fill:#666666;" d="M207.02,245.043v22.512c0,4.213-3.408,7.62-7.62,7.62c-4.063,0-7.381-3.179-7.6-7.193
		c8.524-8.763,12.845-18.11,15.01-24.707C206.95,243.84,207.02,244.437,207.02,245.043z"/>
</g>
<path style="fill:#E0B775;" d="M274.089,298.675c0-0.567-0.114-1.121-0.331-1.658c-2.302-5.685-3.93-11.609-3.882-17.743
	c0.006-0.685,0.008-1.383,0.008-2.095c0-34.249-6.216-54.758-13.882-54.758c-7.667,0-13.882,20.51-13.882,54.758
	c0,0.712,0.002,1.41,0.008,2.095c0.049,6.133-1.581,12.058-3.882,17.743c-0.218,0.536-0.331,1.09-0.331,1.658
	c0,2.796,2.754,5.276,7.016,6.867c2.535,7.915,6.55,9.008,11.071,9.008s8.537-1.093,11.071-9.008
	C271.336,303.952,274.089,301.471,274.089,298.675z"/>
<path style="fill:#4D4D4D;" d="M297.417,332.599c-0.011,0.111-0.011,0.211-0.022,0.322c-0.044,0.633-0.111,1.266-0.211,1.888
	c-0.078,0.489-0.167,0.966-0.278,1.443c-0.078,0.344-0.167,0.688-0.255,1.033c-0.366,1.321-0.855,2.609-1.466,3.864
	c-1.943,4.064-5.063,7.728-9.071,10.77c-7.572,5.729-18.254,9.304-30.112,9.304c-11.858,0-22.539-3.575-30.112-9.304
	c-4.008-3.042-7.128-6.706-9.071-10.77c-0.611-1.255-1.099-2.543-1.466-3.864c-0.089-0.344-0.178-0.688-0.255-1.033
	c-0.111-0.477-0.2-0.955-0.278-1.443c-0.1-0.622-0.167-1.255-0.211-1.888c-0.011-0.111-0.011-0.211-0.022-0.322
	c1.454,0.289,2.931,0.566,4.441,0.822c11.159,1.932,23.705,3.009,36.973,3.009c13.268,0,25.815-1.077,36.973-3.009
	C294.486,333.165,295.962,332.887,297.417,332.599z"/>
<path style="fill:#F2F2F2;" d="M297.417,332.599c-0.011,0.111-0.011,0.211-0.022,0.322c-0.044,0.633-0.111,1.266-0.211,1.888
	c-0.078,0.489-0.167,0.966-0.278,1.443c-0.078,0.344-0.167,0.688-0.255,1.033c-0.366,1.321-0.855,2.609-1.466,3.864
	c-3.997,0.622-8.161,1.155-12.458,1.577c-8.449,0.844-17.421,1.288-26.725,1.288c-9.304,0-18.276-0.444-26.725-1.288
	c-4.297-0.422-8.461-0.955-12.458-1.577c-0.611-1.255-1.099-2.543-1.466-3.864c-0.089-0.344-0.178-0.688-0.255-1.033
	c-0.111-0.477-0.2-0.955-0.278-1.443c-0.1-0.622-0.167-1.255-0.211-1.888c-0.011-0.111-0.011-0.211-0.022-0.322
	c1.454,0.289,2.931,0.566,4.441,0.822c11.159,1.932,23.705,3.009,36.973,3.009s25.815-1.077,36.973-3.009
	C294.486,333.165,295.962,332.887,297.417,332.599z"/>
<path style="fill:#FFFFFF;" d="M292.976,333.42c-1.81,2.587-4.13,4.952-6.862,7.028c-1.066,0.811-2.198,1.577-3.386,2.276
	c-8.449,0.844-17.421,1.288-26.725,1.288c-9.304,0-18.276-0.444-26.725-1.288c-1.188-0.699-2.321-1.466-3.386-2.276
	c-2.731-2.076-5.052-4.441-6.862-7.028c11.159,1.932,23.705,3.009,36.973,3.009C269.271,336.429,281.817,335.352,292.976,333.42z"/>
<path style="fill:#EFC881;" d="M277.766,370.074c0-4.541-9.743,0.484-21.763,0.484s-21.763-5.024-21.763-0.484
	c0,4.54,9.743,8.222,21.763,8.222C268.021,378.295,277.766,374.614,277.766,370.074z"/>
<g>
</g>
<g>
</g>
<g>
</g>
<g>
</g>
<g>
</g>
<g>
</g>
<g>
</g>
<g>
</g>
<g>
</g>
<g>
</g>
<g>
</g>
<g>
</g>
<g>
</g>
<g>
</g>
<g>
</g>
</svg>
